<svg width="40" height="40" viewBox="0 0 40 40" fill="none" xmlns="http://www.w3.org/2000/svg">
<path d="M34.1692 16.4369H31.4053C31.1389 15.7043 30.8559 14.9883 30.4729 14.3223L32.5208 12.2744C33.5198 11.2754 33.5198 9.67698 32.5208 8.67798L31.3553 7.51248C30.3563 6.51348 28.758 6.51348 27.759 7.51248L25.7109 9.56043C25.0449 9.17748 24.3291 8.89443 23.5965 8.62803V5.86412C23.5965 4.46552 22.4476 3.33333 21.0656 3.33333H19.0843C17.6357 3.33333 16.4369 4.51548 16.4369 5.98068V8.62803C15.7043 8.89443 14.9884 9.17748 14.3224 9.56043L12.2744 7.51248C11.2754 6.51348 9.67701 6.51348 8.67801 7.51248L7.51249 8.67798C6.51349 9.67698 6.51349 11.2754 7.51249 12.2744L9.56041 14.3223C9.29401 15.005 9.01097 15.7209 8.62802 16.4369H5.86416C4.46556 16.4369 3.33333 17.5858 3.33333 18.9677V21.0323C3.33333 22.4309 4.48221 23.5631 5.86416 23.5631H8.62802C8.89442 24.2957 9.17746 25.0117 9.56041 25.6777L7.51249 27.7256C6.51349 28.7246 6.51349 30.323 7.51249 31.322L8.67801 32.4875C9.67701 33.4865 11.2754 33.4865 12.2744 32.4875L14.3224 30.4396C14.9884 30.8225 15.7043 31.1056 16.4369 31.372V34.1359C16.4369 35.5345 17.5858 36.6667 18.9677 36.6667H21.0323C22.4309 36.6667 23.5631 35.5178 23.5631 34.1359V31.372C24.2957 31.1056 25.0117 30.8225 25.6777 30.4396L27.7256 32.4875C28.7246 33.4865 30.323 33.4865 31.322 32.4875L32.4875 31.322C33.4865 30.323 33.4865 28.7246 32.4875 27.7256L30.4396 25.6777C30.8225 25.0117 31.1056 24.2957 31.372 23.5631H34.1358C35.5344 23.5631 36.6667 22.4142 36.6667 21.0323V18.9677C36.6667 17.5691 35.5178 16.4369 34.1358 16.4369H34.1525H34.1692ZM20.0333 24.1791C17.719 24.1791 15.8708 22.3143 15.8708 20.0166C15.8708 17.7189 17.7356 15.8541 20.0333 15.8541C22.331 15.8541 24.1958 17.7189 24.1958 20.0166C24.1958 22.3143 22.331 24.1791 20.0333 24.1791Z" fill="white"/>
</svg>
